<?xml version="1.0" encoding="iso-8859-1"?>
<!-- Uploaded to: SVG Repo, www.svgrepo.com, Generator: SVG Repo Mixer Tools -->
<!DOCTYPE svg PUBLIC "-//W3C//DTD SVG 1.1//EN" "http://www.w3.org/Graphics/SVG/1.1/DTD/svg11.dtd">
<svg fill="#000000" version="1.1" id="Capa_1" xmlns="http://www.w3.org/2000/svg" xmlns:xlink="http://www.w3.org/1999/xlink" 
	 width="800px" height="800px" viewBox="0 0 31.385 31.385"
	 xml:space="preserve">
<g>
	<g>
		<path d="M26.014,22.717L29.76,6.898L12.871,5.242l-2.419,12.695h-0.001L0.226,19.451l13.642,4.896L26.014,22.717z M13.564,6.359
			l14.497,1.703l-3.154,13.325l-13.512-3.821L13.564,6.359z M10.472,22.438l-3.348-1.278l1.615-0.215l3.756,1.254L10.472,22.438z"/>
		<polygon points="30.546,7.346 26.814,23.27 13.822,25.168 13.822,25.163 0,20.105 0,20.889 13.73,26.143 27.518,23.95 
			31.385,7.928 		"/>
		<polygon points="18.131,14.493 21.154,13.625 18.58,11.814 		"/>
		<path d="M19.924,9.319c-2.173-0.366-4.363,1.464-4.603,3.279c-0.244,1.731,1.106,4.238,3.279,4.603
			c2.174,0.365,4.238-1.107,4.604-3.279C23.568,11.748,22.098,9.684,19.924,9.319z M22.188,13.75
			c-0.271,1.614-1.803,2.706-3.416,2.435c-1.612-0.271-2.625-1.875-2.436-3.417c0.191-1.542,1.805-2.704,3.418-2.434
			C21.366,10.605,22.459,12.138,22.188,13.75z"/>
	</g>
</g>
</svg>